<svg width="90" height="76" viewBox="0 0 90 76" fill="none" xmlns="http://www.w3.org/2000/svg">
<g clip-path="url(#clip0_205_3)">
<path d="M25.9173 1.24535C25.9319 1.38541 26.0678 5.28383 26.2231 9.91759C26.3784 14.5514 26.5143 18.3622 26.5288 18.3856C26.5434 18.4148 26.5968 18.4498 26.6502 18.4673C26.7327 18.4965 27.4898 17.2476 31.8674 9.83005C34.6823 5.06207 37.007 1.12863 37.0264 1.08194C37.0604 1.01191 36.2499 1.00024 31.4792 1.00024H25.8931L25.9173 1.24535Z" stroke="#FDCA72" stroke-width="2" stroke-linejoin="round"/>
<path d="M19.9384 6.86466C16.8081 9.9869 14.2407 12.5664 14.2407 12.5956C14.2407 12.6189 16.8566 14.0371 20.0549 15.7412C25.675 18.735 25.874 18.8342 25.9128 18.7058C25.9371 18.6183 26.005 18.5658 26.1215 18.5424L26.2914 18.5016L26.2622 18.2273C26.2525 18.0756 26.1166 14.1946 25.9662 9.60756C25.8109 5.01466 25.675 1.24463 25.6604 1.22128C25.6459 1.20378 23.0688 3.74242 19.9384 6.86466Z" stroke="#FDCA72" stroke-width="2" stroke-linejoin="round"/>
<path d="M32.0619 9.97576C29.247 14.7379 26.932 18.6596 26.9223 18.6888C26.9125 18.7238 26.9562 18.8114 27.0145 18.8872C27.1115 19.0156 27.1164 19.0273 27.0387 19.2374C26.9999 19.36 26.9708 19.465 26.9756 19.4767C26.9853 19.4825 29.2858 20.9707 32.0861 22.7857L37.182 26.0771L37.1966 19.8677C37.2015 16.4478 37.2015 10.8803 37.1966 7.4838L37.182 1.31519L32.0619 9.97576Z" stroke="#FDCA72" stroke-width="2" stroke-linejoin="round"/>
<path d="M12.0663 14.7201C10.2657 16.5176 10.1978 16.5935 10.2123 16.7744C10.2172 16.8794 10.8772 22.0326 11.678 28.2304C12.4788 34.4223 13.134 39.5288 13.134 39.5638C13.134 39.6047 13.1922 39.628 13.2699 39.6222C13.3863 39.6105 14.1774 38.3849 19.6373 29.7652C23.0686 24.3494 25.9078 19.8499 25.9466 19.7682C26.0145 19.6282 26.0097 19.6106 25.8738 19.4414C25.7961 19.3422 25.7282 19.2196 25.7282 19.1671C25.7282 19.0971 24.1751 18.245 19.88 15.9573C16.6672 14.2474 14.0124 12.8468 13.9833 12.8468C13.959 12.8468 13.0952 13.693 12.0663 14.7201Z" stroke="#FDCA72" stroke-width="2" stroke-linejoin="round"/>
<path d="M5.81547 31.8667C3.51503 39.967 1.63682 46.6084 1.64652 46.62C1.66108 46.6317 4.08771 45.2661 7.0482 43.5853C11.3094 41.1634 12.4305 40.504 12.4353 40.4164C12.4402 40.3522 12.4984 40.1655 12.5712 39.9962C12.6586 39.7861 12.7265 39.6928 12.7945 39.6928C12.8576 39.6928 12.8915 39.6519 12.8915 39.5877C12.8915 39.5118 10.0863 17.6912 10.0184 17.2301C10.0087 17.1835 8.12077 23.7723 5.81547 31.8667Z" stroke="#FDCA72" stroke-width="2" stroke-linejoin="round"/>
<path d="M26.626 19.7975C26.626 19.8675 30.9211 48.2945 30.9696 48.5455C30.9842 48.6272 31.0327 48.6797 31.0861 48.6797C31.1541 48.6797 31.4161 47.991 32.3916 45.2481C33.0614 43.3631 34.4155 39.5464 35.4055 36.7627L37.2061 31.7029V29.0592V26.4155L32.0374 23.0715C29.1885 21.2332 26.8104 19.7333 26.7473 19.7333C26.6794 19.7333 26.626 19.7625 26.626 19.7975Z" stroke="#FDCA72" stroke-width="2" stroke-linejoin="round"/>
<path d="M25.398 21.1166C18.3414 32.24 13.5706 39.8267 13.5997 39.8851C13.6192 39.9201 13.6774 40.0135 13.7259 40.0835C13.8036 40.1827 13.8133 40.2294 13.7648 40.3286C13.7211 40.4336 13.7259 40.457 13.823 40.5037C13.8861 40.5329 17.6037 42.4529 22.0881 44.7698C26.5725 47.0866 30.2707 48.995 30.2998 49.0125C30.3338 49.03 30.3872 48.9717 30.4163 48.89C30.46 48.7791 30.5133 48.7382 30.6153 48.7382C30.7463 48.7382 30.756 48.7265 30.7317 48.5748C30.6832 48.2947 26.3832 19.8619 26.3832 19.8269C26.3832 19.8094 26.3493 19.7918 26.3104 19.7918C26.2765 19.7918 25.8639 20.3871 25.398 21.1166Z" stroke="#FDCA72" stroke-width="2" stroke-linejoin="round"/>
<path d="M34.299 40.5971C32.7119 45.0617 31.4064 48.7617 31.3967 48.8258C31.3821 48.8959 31.421 48.9951 31.4938 49.0768L31.6151 49.2169L31.4841 49.5612L31.353 49.9113L32.6925 55.4672C33.4302 58.5252 34.7406 63.9585 35.6093 67.5418L37.1818 74.0605L37.1964 63.6784C37.2012 57.965 37.2012 48.6099 37.1964 42.8907L37.1818 32.4852L34.299 40.5971Z" stroke="#FDCA72" stroke-width="2" stroke-linejoin="round"/>
<path d="M7.09644 43.8647C4.08256 45.5805 1.6074 46.9928 1.59769 47.0044C1.58799 47.0161 3.49532 50.9379 5.83944 55.7117C9.09598 62.3589 10.1055 64.3664 10.1297 64.2847C10.1491 64.2205 10.7849 58.9682 11.5372 52.607L12.9106 41.0343L12.7942 40.8884C12.7311 40.8067 12.6583 40.7425 12.6292 40.7483C12.6 40.7483 10.1103 42.1489 7.09644 43.8647Z" stroke="#FDCA72" stroke-width="2" stroke-linejoin="round"/>
<path d="M13.5804 40.819C13.5367 40.8832 14.6044 43.2993 18.6181 52.2166C21.4184 58.4377 23.7431 63.5559 23.7771 63.5851C23.8208 63.6201 23.9275 63.6201 24.0537 63.5851L24.2624 63.5325L27.451 56.7628L30.6444 49.9931L30.4309 49.7247C30.3047 49.5729 30.2222 49.4212 30.2368 49.3745C30.2562 49.3161 28.2275 48.2423 22.0105 45.0325C17.4678 42.6865 13.726 40.7665 13.6969 40.7548C13.6629 40.7431 13.6095 40.7723 13.5804 40.819Z" stroke="#FDCA72" stroke-width="2" stroke-linejoin="round"/>
<path d="M13.1776 40.9301C13.163 40.9768 10.3384 64.7 10.3433 64.7175C10.3481 64.7233 13.0951 64.6416 16.439 64.5249C19.7877 64.414 22.6948 64.3206 22.9035 64.3206H23.2821L23.3985 64.0113L23.5199 63.702L18.39 52.3102C15.5702 46.0424 13.2455 40.9184 13.2213 40.9184C13.2018 40.9184 13.1824 40.9243 13.1776 40.9301Z" stroke="#FDCA72" stroke-width="2" stroke-linejoin="round"/>
<path d="M27.7181 56.7626C25.9564 60.5034 24.4956 63.6257 24.4713 63.7074C24.4325 63.8241 24.447 63.8766 24.5393 63.9992C24.6606 64.1567 24.6606 64.1509 24.515 64.5653C24.4907 64.647 25.6312 65.5866 30.7805 69.7126C34.2458 72.4905 37.0849 74.7548 37.0898 74.749C37.0946 74.7432 35.7551 69.164 34.1099 62.3476C31.3775 51.0258 31.1106 49.9637 31.0232 49.9637C30.9407 49.9637 30.334 51.2067 27.7181 56.7626Z" stroke="#FDCA72" stroke-width="2" stroke-linejoin="round"/>
<path d="M21.7194 64.6353C21.7097 64.647 21.0691 64.6703 20.2926 64.6937C17.7446 64.7637 10.6977 65.0088 10.6831 65.0322C10.6734 65.0438 13.8377 67.2907 17.7058 70.0219L24.7479 75H26.0291C27.2279 75 27.3104 74.9942 27.2861 74.895C27.2716 74.8424 26.529 72.5781 25.636 69.8644L24.0199 64.933H23.8694C23.7724 64.933 23.6704 64.8746 23.5831 64.7696L23.4423 64.612H22.593C22.1223 64.612 21.7291 64.6237 21.7194 64.6353Z" stroke="#FDCA72" stroke-width="2" stroke-linejoin="round"/>
<path d="M24.3595 65.1897C24.4177 65.3765 25.1651 67.6642 26.0193 70.267L27.5723 75H32.2557C34.9541 75 36.9148 74.9767 36.8906 74.9475C36.8178 74.8716 24.3012 64.8454 24.2721 64.8454C24.2575 64.8454 24.2964 64.9972 24.3595 65.1897Z" stroke="#FDCA72" stroke-width="2" stroke-linejoin="round"/>
<path d="M42.1662 2.30743C42.1711 2.35995 43.2825 6.46847 44.6317 11.4466L47.0826 20.4923H47.233C47.3544 20.4923 47.4272 20.5507 47.5728 20.7491L47.762 21.0059L55.3962 17.0024C59.5894 14.7964 63.0255 12.9814 63.0255 12.9639C63.0255 12.9406 42.5885 2.41247 42.1954 2.23156C42.1662 2.21989 42.1565 2.2549 42.1662 2.30743Z" stroke="#FDCA72" stroke-width="2" stroke-linejoin="round"/>
<path d="M42.0158 3.00135C42.0109 3.15893 41.7585 10.1679 41.4528 18.5833C41.1422 26.9988 40.8995 34.002 40.9044 34.1479C40.9189 34.3988 41.0014 34.2296 43.894 28.1427L46.8739 21.8748L46.6506 21.6064C46.5293 21.4546 46.4274 21.3146 46.4274 21.2912C46.4274 21.1453 46.6506 20.6493 46.7428 20.5909C46.8496 20.5209 46.8496 20.5092 44.457 11.6794C43.1369 6.81808 42.0497 2.80877 42.04 2.77959C42.0255 2.74457 42.0158 2.84962 42.0158 3.00135Z" stroke="#FDCA72" stroke-width="2" stroke-linejoin="round"/>
<path d="M55.4637 30.5063L47.4897 47.8625L47.5771 48.0084C47.6256 48.0843 47.6742 48.1485 47.6887 48.1543C47.7033 48.1543 49.266 47.5649 51.1588 46.847C54.2067 45.6974 54.6095 45.5281 54.6629 45.4056C54.7551 45.1721 64.9663 14.0256 64.9663 13.9731C64.9663 13.9497 64.6848 13.7863 64.3451 13.6112C64.0054 13.4362 63.6608 13.2611 63.5783 13.2202L63.4327 13.1444L55.4637 30.5063Z" stroke="#FDCA72" stroke-width="2" stroke-linejoin="round"/>
<path d="M55.3236 17.3349L47.6943 21.3384L47.6215 21.5543C47.573 21.706 47.5196 21.7761 47.4565 21.7761C47.3643 21.7761 47.3594 21.8403 47.3303 23.8887C47.3157 25.0559 47.2818 30.0398 47.2526 34.9653C47.2284 39.8909 47.1944 44.7814 47.175 45.8319C47.1556 47.4018 47.1604 47.7461 47.2138 47.7461C47.2575 47.7461 62.2249 15.2748 62.9675 13.5707C63.0403 13.3956 63.0548 13.3139 63.016 13.3198C62.982 13.3256 59.5217 15.1289 55.3236 17.3349Z" stroke="#FDCA72" stroke-width="2" stroke-linejoin="round"/>
<path d="M44.0199 28.4402C42.3407 31.9709 40.9624 34.8947 40.9526 34.9297C40.9429 34.9823 46.762 47.6988 46.8397 47.7922C46.8542 47.8097 46.8785 47.8097 46.893 47.7864C46.9222 47.7572 47.1114 22.0615 47.0872 22.0264C47.0823 22.0206 45.704 24.9036 44.0199 28.4402Z" stroke="#FDCA72" stroke-width="2" stroke-linejoin="round"/>
<path d="M40.8411 35.4379C40.8314 35.5488 40.2296 52.0996 40.2344 52.1054C40.2393 52.1113 41.6467 51.3526 43.3599 50.413C46.0874 48.9248 46.4757 48.6972 46.4563 48.598C46.4417 48.5338 46.4757 48.3646 46.5291 48.2128L46.6261 47.9386L43.7579 41.6999C42.1757 38.2684 40.875 35.4496 40.8653 35.4379C40.8556 35.4263 40.8459 35.4263 40.8411 35.4379Z" stroke="#FDCA72" stroke-width="2" stroke-linejoin="round"/>
<path d="M51.1105 47.1568L47.7666 48.4232L47.655 48.7267C47.5725 48.9543 47.5191 49.0302 47.4414 49.0302C47.388 49.0302 47.3492 49.0535 47.3589 49.0827C47.5191 49.6371 50.4893 58.0584 50.5087 58.0292C50.5572 57.965 54.4981 45.9371 54.4786 45.9138C54.4689 45.9021 52.9547 46.4623 51.1105 47.1568Z" stroke="#FDCA72" stroke-width="2" stroke-linejoin="round"/>
<path d="M43.4666 50.6642C41.5447 51.7205 40.2925 52.4383 40.2974 52.485C40.3071 52.59 45.7913 66.608 45.8495 66.678C45.8738 66.713 45.8932 66.7189 45.8932 66.7014C45.8932 66.678 46.0922 63.1881 46.33 58.9395C46.5726 54.691 46.7959 50.7459 46.8299 50.1623L46.8881 49.106L46.7813 49.0126C46.7231 48.9542 46.6697 48.9134 46.66 48.9134C46.6503 48.9192 45.2137 49.7071 43.4666 50.6642Z" stroke="#FDCA72" stroke-width="2" stroke-linejoin="round"/>
<path d="M47.1117 49.3278C47.1069 49.4445 46.8885 53.3896 46.6216 58.0934C46.3546 62.7972 46.1362 66.6606 46.1362 66.6781C46.1362 66.6956 46.1702 66.6956 46.2139 66.6722C46.2576 66.6547 46.3498 66.7072 46.442 66.8181L46.5973 67.0049L47.1506 66.7831C47.4563 66.6664 47.7232 66.5263 47.7475 66.4796C47.8737 66.2112 50.3634 58.5019 50.344 58.426C50.3343 58.3793 49.616 56.3134 48.757 53.8448C47.898 51.3703 47.1748 49.2986 47.1506 49.2344C47.1214 49.141 47.1117 49.1585 47.1117 49.3278Z" stroke="#FDCA72" stroke-width="2" stroke-linejoin="round"/>
<path d="M40.2101 53.0626C40.2003 53.0976 39.3996 74.7373 39.4093 74.749C39.4141 74.7549 44.976 68.3586 45.3545 67.9093C45.5147 67.7225 45.5195 67.705 45.4467 67.5766C45.3788 67.4541 45.3836 67.4191 45.4904 67.1156L45.6069 66.7888L44.6653 64.3727C44.146 63.0421 42.9376 59.9607 41.9863 57.5213C41.0351 55.0818 40.244 53.0743 40.2343 53.0626C40.2246 53.0509 40.2101 53.0509 40.2101 53.0626Z" stroke="#FDCA72" stroke-width="2" stroke-linejoin="round"/>
<path d="M47.2763 67.0287L46.791 67.2096L46.6599 67.5306C46.5871 67.7056 46.524 67.869 46.5143 67.8924C46.4852 67.9741 45.83 68.0558 45.7621 67.9858C45.7087 67.9332 45.6601 67.9624 45.5388 68.0967C45.4515 68.19 44.0731 69.7774 42.4764 71.6216L39.5645 74.9714L46.4027 74.9889C50.1591 74.9948 53.2458 74.9889 53.2604 74.9772C53.2749 74.9539 47.9703 67.0929 47.815 66.9119C47.7762 66.8653 47.6354 66.8944 47.2763 67.0287Z" stroke="#FDCA72" stroke-width="2" stroke-linejoin="round"/>
<path d="M71.8096 18.7409C71.8096 25.0613 71.8096 25.2188 71.9018 25.2188C71.9503 25.2188 72.0765 25.3356 72.1784 25.4756L72.3677 25.7266L76.954 24.6936C79.4777 24.1275 81.5743 23.649 81.6229 23.6373C81.6665 23.6256 80.2494 22.7619 78.4779 21.7231C76.7065 20.6843 75.2651 19.8147 75.2797 19.8031C75.2942 19.7856 75.2845 19.7447 75.2602 19.7097C75.236 19.6688 75.3913 18.7993 75.6485 17.5504C75.8863 16.3949 76.0756 15.4494 76.0707 15.4378C76.0271 15.3911 71.8532 12.263 71.8338 12.263C71.8193 12.263 71.8096 15.1751 71.8096 18.7409Z" stroke="#FDCA72" stroke-width="2" stroke-linejoin="round"/>
<path d="M69.189 17.8251C67.898 20.7197 66.2479 24.4139 65.5199 26.0363C62.4138 32.9927 61.812 34.335 61.812 34.3525C61.812 34.37 70.3974 26.9642 70.9264 26.4915C71.1691 26.2755 71.1788 26.2522 71.1109 26.1588C71.0089 26.0246 71.0138 25.9429 71.1545 25.5811C71.2565 25.3126 71.2904 25.2776 71.4215 25.2776H71.5671V18.9164C71.5671 15.4148 71.5622 12.5552 71.5574 12.5552C71.5476 12.5552 70.4848 14.9246 69.189 17.8251Z" stroke="#FDCA72" stroke-width="2" stroke-linejoin="round"/>
<path d="M77.0756 24.9504C74.4888 25.534 72.3388 26.03 72.3097 26.0534C72.2757 26.0825 72.2466 26.1351 72.2466 26.1759C72.2466 26.2168 73.887 27.4015 75.8962 28.8021C78.9489 30.9439 79.5507 31.3407 79.5847 31.2649C79.609 31.2124 79.6721 31.1715 79.7255 31.1715C79.8225 31.1715 79.8225 31.1482 79.7934 30.2494L79.7594 29.3332L80.8077 26.6486C81.3853 25.178 81.856 23.9466 81.856 23.9232C81.856 23.8999 81.8415 23.8824 81.8221 23.8824C81.7978 23.8882 79.6672 24.3668 77.0756 24.9504Z" stroke="#FDCA72" stroke-width="2" stroke-linejoin="round"/>
<path d="M66.5244 30.6469C63.9036 32.9112 61.7682 34.7846 61.7779 34.8196C61.7876 34.8838 63.2775 35.6074 63.3989 35.6074C63.5347 35.6074 79.2593 31.8724 79.3321 31.8199C79.3709 31.7965 79.4098 31.7382 79.4195 31.6915C79.4292 31.639 78.1625 30.7227 75.8038 29.0711L72.1735 26.5325H71.727H71.2854L66.5244 30.6469Z" stroke="#FDCA72" stroke-width="2" stroke-linejoin="round"/>
<path d="M80.0311 30.2031C80.0456 30.454 80.0602 30.7633 80.0602 30.8859C80.0602 31.1018 80.065 31.1077 80.1961 31.0785C80.3077 31.0551 80.3562 31.0902 80.5407 31.3528C80.7445 31.6387 80.7542 31.6621 80.696 31.8372C80.662 31.9364 80.6232 32.0589 80.6135 32.1056C80.5941 32.1873 81.5938 33.0744 86.0734 36.9436C87.1702 37.8832 87.3449 38.1108 83.5788 33.8272C82.0063 32.0356 80.5552 30.384 80.3562 30.1564L80.002 29.742L80.0311 30.2031Z" stroke="#FDCA72" stroke-width="2" stroke-linejoin="round"/>
<path d="M71.6059 33.9618C67.3399 34.9772 63.8698 35.8293 63.8892 35.8468C63.9329 35.8993 84.5884 45.6454 84.6078 45.622C84.6127 45.6162 83.5935 42.6399 82.3413 39.0157C80.1913 32.7946 80.0554 32.4269 79.9438 32.4269C79.8807 32.4269 79.7594 32.3569 79.6866 32.2635C79.6089 32.176 79.5022 32.1059 79.4488 32.1118C79.4003 32.1176 75.8671 32.9463 71.6059 33.9618Z" stroke="#FDCA72" stroke-width="2" stroke-linejoin="round"/>
<path d="M80.3176 32.4148C80.4486 32.8233 84.8408 45.5107 84.8602 45.5399C84.8845 45.5749 88.2187 39.3071 88.2332 39.202C88.2381 39.1612 80.3904 32.3389 80.3321 32.3389C80.3127 32.3389 80.303 32.374 80.3176 32.4148Z" stroke="#FDCA72" stroke-width="2" stroke-linejoin="round"/>
<path d="M57.7159 55.9277C56.0755 58.4021 54.736 60.4389 54.7457 60.4506C54.7699 60.4797 66.9613 60.7132 66.9904 60.684C67.0147 60.649 60.7928 51.4223 60.7394 51.4223C60.72 51.4223 59.3611 53.4474 57.7159 55.9277Z" stroke="#FDCA72" stroke-width="2" stroke-linejoin="round"/>
<path d="M55.1877 60.8423C55.2702 60.889 57.1726 61.922 59.4197 63.1417L63.5061 65.3594L64.2535 64.449C65.5105 62.9024 67.0053 61.0349 66.9908 61.0174C66.9859 61.0116 64.7971 60.9649 62.1278 60.9124C59.4585 60.8657 56.7747 60.8073 56.1583 60.7898C55.1779 60.7665 55.0615 60.7723 55.1877 60.8423Z" stroke="#FDCA72" stroke-width="2" stroke-linejoin="round"/>
<path d="M65.4712 63.3344C64.486 64.5541 63.6658 65.5987 63.6464 65.6513C63.5833 65.8263 62.2874 71.4522 62.3069 71.4756C62.3263 71.4931 67.893 64.5891 68.5384 63.7429L68.8345 63.3577L68.0871 62.2489C67.6794 61.6361 67.3251 61.1342 67.3009 61.1226C67.2814 61.1167 66.4564 62.1088 65.4712 63.3344Z" stroke="#FDCA72" stroke-width="2" stroke-linejoin="round"/>
</g>
<defs>
<clipPath id="clip0_205_3">
<rect width="90" height="76" fill="white"/>
</clipPath>
</defs>
</svg>
